<svg width="300" height="279" viewBox="0 0 300 279" fill="none" xmlns="http://www.w3.org/2000/svg">
<path d="M51.2195 0H248.78V68.2927H239.8V8.96781H60.1995V68.2927H51.2195V0Z" fill="#0A445E"/>
<path d="M239.8 137.805V163.663L150 264.55L60.1995 163.663V137.805H51.2195V167.072L150 278.049L248.78 167.072V137.805H239.8Z" fill="#0A445E"/>
<path d="M0 78.0488H73.1707V90.2439H12.1951L0 78.0488Z" fill="#0A445E"/>
<path d="M14.6342 95.1219H73.1707V107.317H26.8293L14.6342 95.1219Z" fill="#0A445E"/>
<path d="M29.2684 110.976H73.1709V123.171H41.4636L29.2684 110.976Z" fill="#0A445E"/>
<path d="M300 78.0488H226.829V90.2439H287.805L300 78.0488Z" fill="#0A445E"/>
<path d="M285.366 95.1219H226.829V107.317H273.171L285.366 95.1219Z" fill="#0A445E"/>
<path d="M270.732 110.976H226.829V123.171H258.536L270.732 110.976Z" fill="#0A445E"/>
<path d="M215.854 18.2928L219.139 28.4047L229.772 28.4047L221.17 34.6542L224.455 44.7662L215.854 38.5167L207.252 44.7662L210.537 34.6542L201.936 28.4047L212.568 28.4047L215.854 18.2928Z" fill="#0A445E"/>
<path d="M84.1462 18.2928L87.4318 28.4047L98.0641 28.4047L89.4624 34.6542L92.748 44.7662L84.1462 38.5167L75.5445 44.7662L78.8301 34.6542L70.2283 28.4047L80.8607 28.4047L84.1462 18.2928Z" fill="#0A445E"/>
<path d="M150 213.415L153.286 223.527L163.918 223.527L155.316 229.776L158.602 239.888L150 233.639L141.398 239.888L144.684 229.776L136.082 223.527L146.714 223.527L150 213.415Z" fill="#0A445E"/>
<path fill-rule="evenodd" clip-rule="evenodd" d="M127.903 189.842L97.5134 137.015V94.4491C97.414 85.9148 99.8262 73.3492 107.636 62.659C108.58 61.3667 109.597 60.1115 110.688 58.902L128.615 76.8296H143.992L145.973 70.732H131.141L115.064 54.6554C123.258 47.7087 134.622 43.0855 149.722 43.0855C164.966 43.0855 176.464 47.7949 184.76 54.8312L168.86 70.732H154.027L156.008 76.8296H171.385L189.142 59.073C190.17 60.2074 191.133 61.3811 192.033 62.5868C199.985 73.2418 202.587 85.8143 202.487 94.4492V137.015L172.098 189.842H127.903ZM112.87 56.6426L111.775 57.7378C112.132 57.3679 112.498 57.0027 112.87 56.6426ZM193.6 94.3951C193.608 93.7924 193.599 93.1642 193.573 92.5135C193.599 93.1641 193.608 93.7923 193.6 94.3948V134.67L180.043 158.237L150 132.537L119.957 158.237L133.06 181.015H166.94L193.6 134.67V94.3951ZM154.107 83.3716L150 70.7317L145.893 83.3716H132.603L143.355 91.1835L139.248 103.823L150 96.0116L160.752 103.823L156.645 91.1835L167.397 83.3716H154.107ZM160.976 125L181.098 120.732C179.878 123.171 176.342 128.171 171.951 128.659C167.561 129.146 162.805 126.423 160.976 125ZM140.244 125L120.122 120.732C121.341 123.171 124.878 128.171 129.268 128.659C133.659 129.146 138.415 126.423 140.244 125Z" fill="#0A445E"/>
<path d="M150.61 157.317L141.633 150H159.587L150.61 157.317Z" fill="#0A445E"/>
<path d="M150.61 162.195L164.868 168.598H136.352L150.61 162.195Z" fill="#0A445E"/>
</svg>
